<svg width="704" height="417" viewBox="0 0 704 417" fill="none" xmlns="http://www.w3.org/2000/svg">
<rect opacity="0.25" width="704" height="417" rx="24" fill="#7021C0"/>
<g clip-path="url(#clip0_111_21)">
<path d="M32 45C32 36.1635 39.1635 29 48 29H656C664.835 29 672 36.1635 672 45V373C672 381.837 664.835 389 656 389H48C39.1635 389 32 381.837 32 373V45Z" fill="#0A0414"/>
<path d="M106.5 47H46C41.5817 47 38 50.5817 38 55V364C38 368.418 41.5817 372 46 372H106.5C110.918 372 114.5 368.418 114.5 364V55C114.5 50.5817 110.918 47 106.5 47Z" fill="#2C2C2C"/>
<path d="M658 47H597.5C593.082 47 589.5 50.5817 589.5 55V364C589.5 368.418 593.082 372 597.5 372H658C662.418 372 666 368.418 666 364V55C666 50.5817 662.418 47 658 47Z" fill="#2C2C2C"/>
<path d="M665.25 29H38.75C35.0221 29 32 32.0221 32 35.75C32 39.4779 35.0221 42.5 38.75 42.5H665.25C668.978 42.5 672 39.4779 672 35.75C672 32.0221 668.978 29 665.25 29Z" fill="#2C2C2C"/>
<path d="M417 351.5H287C284.515 351.5 282.5 353.515 282.5 356V365.5C282.5 367.985 284.515 370 287 370H417C419.485 370 421.5 367.985 421.5 365.5V356C421.5 353.515 419.485 351.5 417 351.5Z" fill="#2C2C2C"/>
<path d="M41 33H38C37.1716 33 36.5 33.6716 36.5 34.5V37C36.5 37.8284 37.1716 38.5 38 38.5H41C41.8284 38.5 42.5 37.8284 42.5 37V34.5C42.5 33.6716 41.8284 33 41 33Z" fill="#D9D9D9"/>
<path d="M67 33H64C63.1716 33 62.5 33.6716 62.5 34.5V37C62.5 37.8284 63.1716 38.5 64 38.5H67C67.8284 38.5 68.5 37.8284 68.5 37V34.5C68.5 33.6716 67.8284 33 67 33Z" fill="#78BAEB"/>
<path d="M54 33H51C50.1716 33 49.5 33.6716 49.5 34.5V37C49.5 37.8284 50.1716 38.5 51 38.5H54C54.8284 38.5 55.5 37.8284 55.5 37V34.5C55.5 33.6716 54.8284 33 54 33Z" fill="#D9D9D9"/>
<path d="M47 51H44C43.1716 51 42.5 51.6716 42.5 52.5V55C42.5 55.8284 43.1716 56.5 44 56.5H47C47.8284 56.5 48.5 55.8284 48.5 55V52.5C48.5 51.6716 47.8284 51 47 51Z" fill="#D9D9D9"/>
<path d="M292 357H289C288.172 357 287.5 357.672 287.5 358.5V361C287.5 361.828 288.172 362.5 289 362.5H292C292.828 362.5 293.5 361.828 293.5 361V358.5C293.5 357.672 292.828 357 292 357Z" fill="#D9D9D9"/>
<path d="M330 357H327C326.172 357 325.5 357.672 325.5 358.5V361C325.5 361.828 326.172 362.5 327 362.5H330C330.828 362.5 331.5 361.828 331.5 361V358.5C331.5 357.672 330.828 357 330 357Z" fill="#D9D9D9"/>
<path d="M311 357H308C307.172 357 306.5 357.672 306.5 358.5V361C306.5 361.828 307.172 362.5 308 362.5H311C311.828 362.5 312.5 361.828 312.5 361V358.5C312.5 357.672 311.828 357 311 357Z" fill="#D9D9D9"/>
<path d="M349 357H346C345.172 357 344.5 357.672 344.5 358.5V361C344.5 361.828 345.172 362.5 346 362.5H349C349.828 362.5 350.5 361.828 350.5 361V358.5C350.5 357.672 349.828 357 349 357Z" fill="#D9D9D9"/>
<path d="M381 357H378C377.172 357 376.5 357.672 376.5 358.5V361C376.5 361.828 377.172 362.5 378 362.5H381C381.828 362.5 382.5 361.828 382.5 361V358.5C382.5 357.672 381.828 357 381 357Z" fill="#D9D9D9"/>
<path d="M394 357H391C390.172 357 389.5 357.672 389.5 358.5V361C389.5 361.828 390.172 362.5 391 362.5H394C394.828 362.5 395.5 361.828 395.5 361V358.5C395.5 357.672 394.828 357 394 357Z" fill="#D9D9D9"/>
<path d="M410.5 357H407.5C406.672 357 406 357.672 406 358.5V361C406 361.828 406.672 362.5 407.5 362.5H410.5C411.328 362.5 412 361.828 412 361V358.5C412 357.672 411.328 357 410.5 357Z" fill="#D9D9D9"/>
<path d="M368 357H365C364.172 357 363.5 357.672 363.5 358.5V361C363.5 361.828 364.172 362.5 365 362.5H368C368.828 362.5 369.5 361.828 369.5 361V358.5C369.5 357.672 368.828 357 368 357Z" fill="#D9D9D9"/>
<path d="M44 168.5H43C42.1716 168.5 41.5 169.172 41.5 170V171C41.5 171.828 42.1716 172.5 43 172.5H44C44.8284 172.5 45.5 171.828 45.5 171V170C45.5 169.172 44.8284 168.5 44 168.5Z" fill="#D9D9D9"/>
<path d="M44 178.5H43C42.1716 178.5 41.5 179.172 41.5 180V181C41.5 181.828 42.1716 182.5 43 182.5H44C44.8284 182.5 45.5 181.828 45.5 181V180C45.5 179.172 44.8284 178.5 44 178.5Z" fill="#D9D9D9"/>
<path d="M44 189H43C42.1716 189 41.5 189.672 41.5 190.5V191.5C41.5 192.328 42.1716 193 43 193H44C44.8284 193 45.5 192.328 45.5 191.5V190.5C45.5 189.672 44.8284 189 44 189Z" fill="#D9D9D9"/>
<path d="M44 199H43C42.1716 199 41.5 199.672 41.5 200.5V201.5C41.5 202.328 42.1716 203 43 203H44C44.8284 203 45.5 202.328 45.5 201.5V200.5C45.5 199.672 44.8284 199 44 199Z" fill="#D9D9D9"/>
<path d="M44 212.5H43C42.1716 212.5 41.5 213.172 41.5 214V215C41.5 215.828 42.1716 216.5 43 216.5H44C44.8284 216.5 45.5 215.828 45.5 215V214C45.5 213.172 44.8284 212.5 44 212.5Z" fill="#D9D9D9"/>
<path d="M44 222.5H43C42.1716 222.5 41.5 223.172 41.5 224V225C41.5 225.828 42.1716 226.5 43 226.5H44C44.8284 226.5 45.5 225.828 45.5 225V224C45.5 223.172 44.8284 222.5 44 222.5Z" fill="#D9D9D9"/>
<path d="M44 233H43C42.1716 233 41.5 233.672 41.5 234.5V235.5C41.5 236.328 42.1716 237 43 237H44C44.8284 237 45.5 236.328 45.5 235.5V234.5C45.5 233.672 44.8284 233 44 233Z" fill="#D9D9D9"/>
<path d="M44 243H43C42.1716 243 41.5 243.672 41.5 244.5V245.5C41.5 246.328 42.1716 247 43 247H44C44.8284 247 45.5 246.328 45.5 245.5V244.5C45.5 243.672 44.8284 243 44 243Z" fill="#D9D9D9"/>
<path d="M44 255.5H43C42.1716 255.5 41.5 256.172 41.5 257V258C41.5 258.828 42.1716 259.5 43 259.5H44C44.8284 259.5 45.5 258.828 45.5 258V257C45.5 256.172 44.8284 255.5 44 255.5Z" fill="#D9D9D9"/>
<path d="M44 265.5H43C42.1716 265.5 41.5 266.172 41.5 267V268C41.5 268.828 42.1716 269.5 43 269.5H44C44.8284 269.5 45.5 268.828 45.5 268V267C45.5 266.172 44.8284 265.5 44 265.5Z" fill="#D9D9D9"/>
<path d="M44 276H43C42.1716 276 41.5 276.672 41.5 277.5V278.5C41.5 279.328 42.1716 280 43 280H44C44.8284 280 45.5 279.328 45.5 278.5V277.5C45.5 276.672 44.8284 276 44 276Z" fill="#D9D9D9"/>
<path d="M44 286H43C42.1716 286 41.5 286.672 41.5 287.5V288.5C41.5 289.328 42.1716 290 43 290H44C44.8284 290 45.5 289.328 45.5 288.5V287.5C45.5 286.672 44.8284 286 44 286Z" fill="#D9D9D9"/>
<path d="M44 297.5H43C42.1716 297.5 41.5 298.172 41.5 299V300C41.5 300.828 42.1716 301.5 43 301.5H44C44.8284 301.5 45.5 300.828 45.5 300V299C45.5 298.172 44.8284 297.5 44 297.5Z" fill="#D9D9D9"/>
<path d="M44 308.5H43C42.1716 308.5 41.5 309.172 41.5 310V311C41.5 311.828 42.1716 312.5 43 312.5H44C44.8284 312.5 45.5 311.828 45.5 311V310C45.5 309.172 44.8284 308.5 44 308.5Z" fill="#D9D9D9"/>
<path d="M44 319.5H43C42.1716 319.5 41.5 320.172 41.5 321V322C41.5 322.828 42.1716 323.5 43 323.5H44C44.8284 323.5 45.5 322.828 45.5 322V321C45.5 320.172 44.8284 319.5 44 319.5Z" fill="#D9D9D9"/>
<path d="M44 330H43C42.1716 330 41.5 330.672 41.5 331.5V332.5C41.5 333.328 42.1716 334 43 334H44C44.8284 334 45.5 333.328 45.5 332.5V331.5C45.5 330.672 44.8284 330 44 330Z" fill="#D9D9D9"/>
<path d="M44 340H43C42.1716 340 41.5 340.672 41.5 341.5V342.5C41.5 343.328 42.1716 344 43 344H44C44.8284 344 45.5 343.328 45.5 342.5V341.5C45.5 340.672 44.8284 340 44 340Z" fill="#D9D9D9"/>
<path d="M44 350H43C42.1716 350 41.5 350.672 41.5 351.5V352.5C41.5 353.328 42.1716 354 43 354H44C44.8284 354 45.5 353.328 45.5 352.5V351.5C45.5 350.672 44.8284 350 44 350Z" fill="#D9D9D9"/>
<path d="M44 360.5H43C42.1716 360.5 41.5 361.172 41.5 362V363C41.5 363.828 42.1716 364.5 43 364.5H44C44.8284 364.5 45.5 363.828 45.5 363V362C45.5 361.172 44.8284 360.5 44 360.5Z" fill="#D9D9D9"/>
<path d="M84.75 34.5H72.25C71.8358 34.5 71.5 34.8358 71.5 35.25C71.5 35.6642 71.8358 36 72.25 36H84.75C85.1642 36 85.5 35.6642 85.5 35.25C85.5 34.8358 85.1642 34.5 84.75 34.5Z" fill="#D9D9D9"/>
<path d="M63.75 69.5H43.75C43.3358 69.5 43 69.8358 43 70.25C43 70.6642 43.3358 71 43.75 71H63.75C64.1642 71 64.5 70.6642 64.5 70.25C64.5 69.8358 64.1642 69.5 63.75 69.5Z" fill="#D9D9D9"/>
<path d="M56.75 97H42.75C42.3358 97 42 97.3358 42 97.75C42 98.1642 42.3358 98.5 42.75 98.5H56.75C57.1642 98.5 57.5 98.1642 57.5 97.75C57.5 97.3358 57.1642 97 56.75 97Z" fill="#D9D9D9"/>
<path d="M54.75 107.5H42.75C42.3358 107.5 42 107.836 42 108.25C42 108.664 42.3358 109 42.75 109H54.75C55.1642 109 55.5 108.664 55.5 108.25C55.5 107.836 55.1642 107.5 54.75 107.5Z" fill="#D9D9D9"/>
<path d="M71.75 170.5H50.25C49.8358 170.5 49.5 170.836 49.5 171.25C49.5 171.664 49.8358 172 50.25 172H71.75C72.1642 172 72.5 171.664 72.5 171.25C72.5 170.836 72.1642 170.5 71.75 170.5Z" fill="#D9D9D9"/>
<path d="M71.75 180.5H50.25C49.8358 180.5 49.5 180.836 49.5 181.25C49.5 181.664 49.8358 182 50.25 182H71.75C72.1642 182 72.5 181.664 72.5 181.25C72.5 180.836 72.1642 180.5 71.75 180.5Z" fill="#D9D9D9"/>
<path d="M71.75 191.5H50.25C49.8358 191.5 49.5 191.836 49.5 192.25C49.5 192.664 49.8358 193 50.25 193H71.75C72.1642 193 72.5 192.664 72.5 192.25C72.5 191.836 72.1642 191.5 71.75 191.5Z" fill="#D9D9D9"/>
<path d="M71.75 201.5H50.25C49.8358 201.5 49.5 201.836 49.5 202.25C49.5 202.664 49.8358 203 50.25 203H71.75C72.1642 203 72.5 202.664 72.5 202.25C72.5 201.836 72.1642 201.5 71.75 201.5Z" fill="#D9D9D9"/>
<path d="M71.75 298H50.25C49.8358 298 49.5 298.336 49.5 298.75C49.5 299.164 49.8358 299.5 50.25 299.5H71.75C72.1642 299.5 72.5 299.164 72.5 298.75C72.5 298.336 72.1642 298 71.75 298Z" fill="#D9D9D9"/>
<path d="M71.75 308H50.25C49.8358 308 49.5 308.336 49.5 308.75C49.5 309.164 49.8358 309.5 50.25 309.5H71.75C72.1642 309.5 72.5 309.164 72.5 308.75C72.5 308.336 72.1642 308 71.75 308Z" fill="#D9D9D9"/>
<path d="M71.75 319H50.25C49.8358 319 49.5 319.336 49.5 319.75C49.5 320.164 49.8358 320.5 50.25 320.5H71.75C72.1642 320.5 72.5 320.164 72.5 319.75C72.5 319.336 72.1642 319 71.75 319Z" fill="#D9D9D9"/>
<path d="M71.75 329.5H50.25C49.8358 329.5 49.5 329.836 49.5 330.25C49.5 330.664 49.8358 331 50.25 331H71.75C72.1642 331 72.5 330.664 72.5 330.25C72.5 329.836 72.1642 329.5 71.75 329.5Z" fill="#D9D9D9"/>
<path d="M71.75 340.5H50.25C49.8358 340.5 49.5 340.836 49.5 341.25C49.5 341.664 49.8358 342 50.25 342H71.75C72.1642 342 72.5 341.664 72.5 341.25C72.5 340.836 72.1642 340.5 71.75 340.5Z" fill="#D9D9D9"/>
<path d="M71.75 351.5H50.25C49.8358 351.5 49.5 351.836 49.5 352.25C49.5 352.664 49.8358 353 50.25 353H71.75C72.1642 353 72.5 352.664 72.5 352.25C72.5 351.836 72.1642 351.5 71.75 351.5Z" fill="#D9D9D9"/>
<path d="M71.75 361.5H50.25C49.8358 361.5 49.5 361.836 49.5 362.25C49.5 362.664 49.8358 363 50.25 363H71.75C72.1642 363 72.5 362.664 72.5 362.25C72.5 361.836 72.1642 361.5 71.75 361.5Z" fill="#D9D9D9"/>
<path d="M71.75 256H50.25C49.8358 256 49.5 256.336 49.5 256.75C49.5 257.164 49.8358 257.5 50.25 257.5H71.75C72.1642 257.5 72.5 257.164 72.5 256.75C72.5 256.336 72.1642 256 71.75 256Z" fill="#D9D9D9"/>
<path d="M71.75 266H50.25C49.8358 266 49.5 266.336 49.5 266.75C49.5 267.164 49.8358 267.5 50.25 267.5H71.75C72.1642 267.5 72.5 267.164 72.5 266.75C72.5 266.336 72.1642 266 71.75 266Z" fill="#D9D9D9"/>
<path d="M71.75 277H50.25C49.8358 277 49.5 277.336 49.5 277.75C49.5 278.164 49.8358 278.5 50.25 278.5H71.75C72.1642 278.5 72.5 278.164 72.5 277.75C72.5 277.336 72.1642 277 71.75 277Z" fill="#D9D9D9"/>
<path d="M71.75 287H50.25C49.8358 287 49.5 287.336 49.5 287.75C49.5 288.164 49.8358 288.5 50.25 288.5H71.75C72.1642 288.5 72.5 288.164 72.5 287.75C72.5 287.336 72.1642 287 71.75 287Z" fill="#D9D9D9"/>
<path d="M71.75 212.5H50.25C49.8358 212.5 49.5 212.836 49.5 213.25C49.5 213.664 49.8358 214 50.25 214H71.75C72.1642 214 72.5 213.664 72.5 213.25C72.5 212.836 72.1642 212.5 71.75 212.5Z" fill="#D9D9D9"/>
<path d="M71.75 223.5H50.25C49.8358 223.5 49.5 223.836 49.5 224.25C49.5 224.664 49.8358 225 50.25 225H71.75C72.1642 225 72.5 224.664 72.5 224.25C72.5 223.836 72.1642 223.5 71.75 223.5Z" fill="#D9D9D9"/>
<path d="M71.75 234H50.25C49.8358 234 49.5 234.336 49.5 234.75C49.5 235.164 49.8358 235.5 50.25 235.5H71.75C72.1642 235.5 72.5 235.164 72.5 234.75C72.5 234.336 72.1642 234 71.75 234Z" fill="#D9D9D9"/>
<path d="M71.75 245H50.25C49.8358 245 49.5 245.336 49.5 245.75C49.5 246.164 49.8358 246.5 50.25 246.5H71.75C72.1642 246.5 72.5 246.164 72.5 245.75C72.5 245.336 72.1642 245 71.75 245Z" fill="#D9D9D9"/>
<path d="M54.75 118.5H42.75C42.3358 118.5 42 118.836 42 119.25C42 119.664 42.3358 120 42.75 120H54.75C55.1642 120 55.5 119.664 55.5 119.25C55.5 118.836 55.1642 118.5 54.75 118.5Z" fill="#D9D9D9"/>
<path d="M113.755 76H38.2452C38.1098 76 38 76.1119 38 76.25C38 76.3881 38.1098 76.5 38.2452 76.5H113.755C113.89 76.5 114 76.3881 114 76.25C114 76.1119 113.89 76 113.755 76Z" fill="#D9D9D9"/>
<path d="M113.755 151H38.2452C38.1098 151 38 151.112 38 151.25C38 151.388 38.1098 151.5 38.2452 151.5H113.755C113.89 151.5 114 151.388 114 151.25C114 151.112 113.89 151 113.755 151Z" fill="#D9D9D9"/>
<path d="M113.755 90H38.2452C38.1098 90 38 90.1119 38 90.25C38 90.3881 38.1098 90.5 38.2452 90.5H113.755C113.89 90.5 114 90.3881 114 90.25C114 90.1119 113.89 90 113.755 90Z" fill="#D9D9D9"/>
<path d="M57.75 63H44.25C43.5596 63 43 63.5596 43 64.25C43 64.9404 43.5596 65.5 44.25 65.5H57.75C58.4404 65.5 59 64.9404 59 64.25C59 63.5596 58.4404 63 57.75 63Z" fill="#D9D9D9"/>
<path d="M47.25 82H42.75C42.0596 82 41.5 82.5596 41.5 83.25C41.5 83.9404 42.0596 84.5 42.75 84.5H47.25C47.9404 84.5 48.5 83.9404 48.5 83.25C48.5 82.5596 47.9404 82 47.25 82Z" fill="#D9D9D9"/>
<path d="M67.25 82H56.75C56.0596 82 55.5 82.5596 55.5 83.25C55.5 83.9404 56.0596 84.5 56.75 84.5H67.25C67.9404 84.5 68.5 83.9404 68.5 83.25C68.5 82.5596 67.9404 82 67.25 82Z" fill="#D9D9D9"/>
<path d="M107.5 127H45C43.3431 127 42 128.343 42 130V145C42 146.657 43.3431 148 45 148H107.5C109.157 148 110.5 146.657 110.5 145V130C110.5 128.343 109.157 127 107.5 127Z" fill="#3E3E3E"/>
<path d="M602.5 54.5C602.5 52.0147 600.485 50 598 50C595.515 50 593.5 52.0147 593.5 54.5C593.5 56.9853 595.515 59 598 59C600.485 59 602.5 56.9853 602.5 54.5Z" fill="#D9D9D9"/>
<path d="M656 50H645C643.895 50 643 50.8954 643 52V57C643 58.1046 643.895 59 645 59H656C657.105 59 658 58.1046 658 57V52C658 50.8954 657.105 50 656 50Z" fill="#2E4BDC"/>
<path d="M654.75 54H646.25C645.836 54 645.5 54.3358 645.5 54.75C645.5 55.1642 645.836 55.5 646.25 55.5H654.75C655.164 55.5 655.5 55.1642 655.5 54.75C655.5 54.3358 655.164 54 654.75 54Z" fill="#D9D9D9"/>
<path d="M604.75 66H597.25C596.56 66 596 66.5596 596 67.25C596 67.9404 596.56 68.5 597.25 68.5H604.75C605.44 68.5 606 67.9404 606 67.25C606 66.5596 605.44 66 604.75 66Z" fill="#D9D9D9"/>
<path d="M630.25 66H617.25C616.56 66 616 66.5596 616 67.25C616 67.9404 616.56 68.5 617.25 68.5H630.25C630.94 68.5 631.5 67.9404 631.5 67.25C631.5 66.5596 630.94 66 630.25 66Z" fill="#D9D9D9"/>
<path d="M614.75 81H595.75C595.06 81 594.5 81.5596 594.5 82.25C594.5 82.9404 595.06 83.5 595.75 83.5H614.75C615.44 83.5 616 82.9404 616 82.25C616 81.5596 615.44 81 614.75 81Z" fill="#D9D9D9"/>
<path d="M607.75 96H597.25C596.56 96 596 96.5596 596 97.25C596 97.9404 596.56 98.5 597.25 98.5H607.75C608.44 98.5 609 97.9404 609 97.25C609 96.5596 608.44 96 607.75 96Z" fill="#D9D9D9"/>
<path d="M665.75 89.5H589.75C589.612 89.5 589.5 89.6119 589.5 89.75C589.5 89.8881 589.612 90 589.75 90H665.75C665.888 90 666 89.8881 666 89.75C666 89.6119 665.888 89.5 665.75 89.5Z" fill="#D9D9D9"/>
<path d="M665.75 139.5H589.75C589.612 139.5 589.5 139.612 589.5 139.75C589.5 139.888 589.612 140 589.75 140H665.75C665.888 140 666 139.888 666 139.75C666 139.612 665.888 139.5 665.75 139.5Z" fill="#D9D9D9"/>
<path d="M665.75 167.5H589.75C589.612 167.5 589.5 167.612 589.5 167.75C589.5 167.888 589.612 168 589.75 168H665.75C665.888 168 666 167.888 666 167.75C666 167.612 665.888 167.5 665.75 167.5Z" fill="#D9D9D9"/>
<path d="M665.75 196H589.75C589.612 196 589.5 196.112 589.5 196.25C589.5 196.388 589.612 196.5 589.75 196.5H665.75C665.888 196.5 666 196.388 666 196.25C666 196.112 665.888 196 665.75 196Z" fill="#D9D9D9"/>
<path d="M665.75 224H589.75C589.612 224 589.5 224.112 589.5 224.25C589.5 224.388 589.612 224.5 589.75 224.5H665.75C665.888 224.5 666 224.388 666 224.25C666 224.112 665.888 224 665.75 224Z" fill="#D9D9D9"/>
<path d="M665.75 238H589.75C589.612 238 589.5 238.112 589.5 238.25C589.5 238.388 589.612 238.5 589.75 238.5H665.75C665.888 238.5 666 238.388 666 238.25C666 238.112 665.888 238 665.75 238Z" fill="#D9D9D9"/>
<path d="M665.75 251.5H589.75C589.612 251.5 589.5 251.612 589.5 251.75C589.5 251.888 589.612 252 589.75 252H665.75C665.888 252 666 251.888 666 251.75C666 251.612 665.888 251.5 665.75 251.5Z" fill="#D9D9D9"/>
<path d="M665.75 265H589.75C589.612 265 589.5 265.112 589.5 265.25C589.5 265.388 589.612 265.5 589.75 265.5H665.75C665.888 265.5 666 265.388 666 265.25C666 265.112 665.888 265 665.75 265Z" fill="#D9D9D9"/>
<path d="M665.75 73.5H589.75C589.612 73.5 589.5 73.6119 589.5 73.75C589.5 73.8881 589.612 74 589.75 74H665.75C665.888 74 666 73.8881 666 73.75C666 73.6119 665.888 73.5 665.75 73.5Z" fill="#D9D9D9"/>
<path d="M606.25 145.5H595.75C595.06 145.5 594.5 146.06 594.5 146.75C594.5 147.44 595.06 148 595.75 148H606.25C606.94 148 607.5 147.44 607.5 146.75C607.5 146.06 606.94 145.5 606.25 145.5Z" fill="#D9D9D9"/>
<path d="M614.75 174H595.75C595.06 174 594.5 174.56 594.5 175.25C594.5 175.94 595.06 176.5 595.75 176.5H614.75C615.44 176.5 616 175.94 616 175.25C616 174.56 615.44 174 614.75 174Z" fill="#D9D9D9"/>
<path d="M600.25 201H595.75C595.06 201 594.5 201.56 594.5 202.25C594.5 202.94 595.06 203.5 595.75 203.5H600.25C600.94 203.5 601.5 202.94 601.5 202.25C601.5 201.56 600.94 201 600.25 201Z" fill="#D9D9D9"/>
<path d="M606.25 231H595.75C595.06 231 594.5 231.56 594.5 232.25C594.5 232.94 595.06 233.5 595.75 233.5H606.25C606.94 233.5 607.5 232.94 607.5 232.25C607.5 231.56 606.94 231 606.25 231Z" fill="#D9D9D9"/>
<path d="M606.75 244H596.25C595.56 244 595 244.56 595 245.25C595 245.94 595.56 246.5 596.25 246.5H606.75C607.44 246.5 608 245.94 608 245.25C608 244.56 607.44 244 606.75 244Z" fill="#D9D9D9"/>
<path d="M606.25 257H595.75C595.06 257 594.5 257.56 594.5 258.25C594.5 258.94 595.06 259.5 595.75 259.5H606.25C606.94 259.5 607.5 258.94 607.5 258.25C607.5 257.56 606.94 257 606.25 257Z" fill="#D9D9D9"/>
<path d="M621 105H598C596.895 105 596 105.895 596 107V111C596 112.105 596.895 113 598 113H621C622.105 113 623 112.105 623 111V107C623 105.895 622.105 105 621 105Z" fill="#3E3E3E"/>
<path d="M653 105H630C628.895 105 628 105.895 628 107V111C628 112.105 628.895 113 630 113H653C654.105 113 655 112.105 655 111V107C655 105.895 654.105 105 653 105Z" fill="#3E3E3E"/>
<path d="M621 155H598C596.895 155 596 155.895 596 157V161C596 162.105 596.895 163 598 163H621C622.105 163 623 162.105 623 161V157C623 155.895 622.105 155 621 155Z" fill="#3E3E3E"/>
<path d="M621 155H598C596.895 155 596 155.895 596 157V161C596 162.105 596.895 163 598 163H621C622.105 163 623 162.105 623 161V157C623 155.895 622.105 155 621 155Z" fill="#3E3E3E"/>
<path d="M653.5 155H630.5C629.395 155 628.5 155.895 628.5 157V161C628.5 162.105 629.395 163 630.5 163H653.5C654.605 163 655.5 162.105 655.5 161V157C655.5 155.895 654.605 155 653.5 155Z" fill="#3E3E3E"/>
<path d="M653.5 155H630.5C629.395 155 628.5 155.895 628.5 157V161C628.5 162.105 629.395 163 630.5 163H653.5C654.605 163 655.5 162.105 655.5 161V157C655.5 155.895 654.605 155 653.5 155Z" fill="#3E3E3E"/>
<path d="M621 155H598C596.895 155 596 155.895 596 157V161C596 162.105 596.895 163 598 163H621C622.105 163 623 162.105 623 161V157C623 155.895 622.105 155 621 155Z" fill="#3E3E3E"/>
<path d="M621 155H598C596.895 155 596 155.895 596 157V161C596 162.105 596.895 163 598 163H621C622.105 163 623 162.105 623 161V157C623 155.895 622.105 155 621 155Z" fill="#3E3E3E"/>
<path d="M653.5 155H630.5C629.395 155 628.5 155.895 628.5 157V161C628.5 162.105 629.395 163 630.5 163H653.5C654.605 163 655.5 162.105 655.5 161V157C655.5 155.895 654.605 155 653.5 155Z" fill="#3E3E3E"/>
<path d="M653.5 155H630.5C629.395 155 628.5 155.895 628.5 157V161C628.5 162.105 629.395 163 630.5 163H653.5C654.605 163 655.5 162.105 655.5 161V157C655.5 155.895 654.605 155 653.5 155Z" fill="#3E3E3E"/>
<path d="M621 183.5H598C596.895 183.5 596 184.395 596 185.5V189.5C596 190.605 596.895 191.5 598 191.5H621C622.105 191.5 623 190.605 623 189.5V185.5C623 184.395 622.105 183.5 621 183.5Z" fill="#3E3E3E"/>
<path d="M621 183.5H598C596.895 183.5 596 184.395 596 185.5V189.5C596 190.605 596.895 191.5 598 191.5H621C622.105 191.5 623 190.605 623 189.5V185.5C623 184.395 622.105 183.5 621 183.5Z" fill="#3E3E3E"/>
<path d="M644 211.5H597.5C596.395 211.5 595.5 212.395 595.5 213.5V217.5C595.5 218.605 596.395 219.5 597.5 219.5H644C645.105 219.5 646 218.605 646 217.5V213.5C646 212.395 645.105 211.5 644 211.5Z" fill="#3E3E3E"/>
<path d="M644 211.5H597.5C596.395 211.5 595.5 212.395 595.5 213.5V217.5C595.5 218.605 596.395 219.5 597.5 219.5H644C645.105 219.5 646 218.605 646 217.5V213.5C646 212.395 645.105 211.5 644 211.5Z" fill="#3E3E3E"/>
<path d="M653.5 183.5H630.5C629.395 183.5 628.5 184.395 628.5 185.5V189.5C628.5 190.605 629.395 191.5 630.5 191.5H653.5C654.605 191.5 655.5 190.605 655.5 189.5V185.5C655.5 184.395 654.605 183.5 653.5 183.5Z" fill="#3E3E3E"/>
<path d="M653.5 183.5H630.5C629.395 183.5 628.5 184.395 628.5 185.5V189.5C628.5 190.605 629.395 191.5 630.5 191.5H653.5C654.605 191.5 655.5 190.605 655.5 189.5V185.5C655.5 184.395 654.605 183.5 653.5 183.5Z" fill="#3E3E3E"/>
<path d="M621 126H598C596.895 126 596 126.895 596 128V132C596 133.105 596.895 134 598 134H621C622.105 134 623 133.105 623 132V128C623 126.895 622.105 126 621 126Z" fill="#3E3E3E"/>
<path d="M621 126H598C596.895 126 596 126.895 596 128V132C596 133.105 596.895 134 598 134H621C622.105 134 623 133.105 623 132V128C623 126.895 622.105 126 621 126Z" fill="#3E3E3E"/>
<path d="M653 126H630C628.895 126 628 126.895 628 128V132C628 133.105 628.895 134 630 134H653C654.105 134 655 133.105 655 132V128C655 126.895 654.105 126 653 126Z" fill="#3E3E3E"/>
<path d="M621 115.5H598C596.895 115.5 596 116.395 596 117.5V121.5C596 122.605 596.895 123.5 598 123.5H621C622.105 123.5 623 122.605 623 121.5V117.5C623 116.395 622.105 115.5 621 115.5Z" fill="#3E3E3E"/>
<path d="M653 115.5H630C628.895 115.5 628 116.395 628 117.5V121.5C628 122.605 628.895 123.5 630 123.5H653C654.105 123.5 655 122.605 655 121.5V117.5C655 116.395 654.105 115.5 653 115.5Z" fill="#3E3E3E"/>
</g>
<defs>
<clipPath id="clip0_111_21">
<rect width="640" height="360" fill="white" transform="translate(32 29)"/>
</clipPath>
</defs>
</svg>
