<svg width="704" height="417" viewBox="0 0 704 417" fill="none" xmlns="http://www.w3.org/2000/svg">
<rect opacity="0.25" width="704" height="417" rx="24" fill="#7021C0"/>
<rect x="32" y="32.6986" width="640" height="356.301" rx="10" fill="#1E1E2E"/>
<rect x="580.571" y="42.5616" width="75.4649" height="339.041" rx="16" fill="#181825"/>
<rect x="32" y="42.5616" width="640" height="11.0959" fill="#11111B"/>
<rect x="32" y="32.6986" width="640" height="13.5616" rx="6.78082" fill="#11111B"/>
<rect x="672" y="38" width="350" height="16" rx="8" transform="rotate(90 672 38)" fill="#11111B"/>
<rect x="32" y="374" width="636" height="14" rx="7" fill="#11111B"/>
<rect x="43.61" y="46.2603" width="29.0249" height="3.69863" rx="1.84932" fill="#D9D9D9"/>
<rect x="261.297" y="34.6986" width="200.272" height="8.63014" rx="4.31507" fill="#181825"/>
<rect x="660.39" y="42.5616" width="7.25624" height="8.63014" rx="3" fill="#BA98E3"/>
<rect x="660.39" y="126.397" width="7.25624" height="7.39726" rx="3" fill="#6C7086"/>
<rect x="660.39" y="109.137" width="7.25624" height="8.63014" rx="3" fill="#6C7086"/>
<rect x="660.39" y="158.452" width="7.25624" height="8.63014" rx="3" fill="#6C7086"/>
<rect x="660.39" y="174.479" width="7.25624" height="8.63014" rx="3" fill="#6C7086"/>
<rect x="660.39" y="142.425" width="7.25624" height="7.39726" rx="3" fill="#6C7086"/>
<rect x="660.39" y="91.8767" width="7.25624" height="8.63014" rx="3" fill="#6C7086"/>
<rect x="660.39" y="74.6165" width="7.25624" height="8.63014" rx="3" fill="#6C7086"/>
<rect x="660.39" y="57.3561" width="7.25624" height="8.63014" rx="3" fill="#6C7086"/>
<rect x="350.921" y="37.4658" width="33.3787" height="1.23288" rx="0.616438" fill="#D9D9D9"/>
<rect x="44.7075" y="37.4658" width="7.25624" height="1.23288" rx="0.616438" fill="#D9D9D9"/>
<rect x="70.83" y="37.4658" width="17.415" height="1.23288" rx="0.616438" fill="#D9D9D9"/>
<rect x="58.1224" y="37.4658" width="7.25624" height="1.23288" rx="0.616438" fill="#D9D9D9"/>
<rect x="92.5987" y="37.4658" width="8.70748" height="1.23288" rx="0.616438" fill="#D9D9D9"/>
<rect x="131.782" y="37.4658" width="15.9637" height="1.23288" rx="0.616438" fill="#D9D9D9"/>
<rect x="118.721" y="37.4658" width="7.25624" height="1.23288" rx="0.616438" fill="#D9D9D9"/>
<rect x="153.551" y="37.4658" width="7.25624" height="1.23288" rx="0.616438" fill="#D9D9D9"/>
<rect x="107.111" y="37.4658" width="7.25624" height="1.23288" rx="0.616438" fill="#D9D9D9"/>
<rect x="346.567" y="36.2328" width="2.90249" height="3.69863" rx="1.45125" fill="#BA98E3"/>
<rect x="36" y="35" width="4.35374" height="4.93151" rx="2" fill="#22A6F1"/>
<rect x="59.5737" y="62.2877" width="18.8662" height="3.69863" rx="1.84932" fill="#BA98E3"/>
<rect x="59.5737" y="62.2877" width="18.8662" height="3.69863" rx="1.84932" fill="#BA98E3"/>
<rect x="59.5737" y="62.2877" width="18.8662" height="3.69863" rx="1.84932" fill="#BA98E3"/>
<rect x="59.5737" y="62.2877" width="18.8662" height="3.69863" rx="1.84932" fill="#BA98E3"/>
<rect x="107.465" y="62.2877" width="11.61" height="3.69863" rx="1.84932" fill="#BA98E3"/>
<rect x="107.465" y="62.2877" width="11.61" height="3.69863" rx="1.84932" fill="#BA98E3"/>
<rect x="107.465" y="62.2877" width="11.61" height="3.69863" rx="1.84932" fill="#BA98E3"/>
<rect x="107.465" y="62.2877" width="11.61" height="3.69863" rx="1.84932" fill="#BA98E3"/>
<rect x="198.893" y="146.123" width="30.4762" height="3.69863" rx="1.84932" fill="#BA98E3"/>
<rect x="198.893" y="146.123" width="30.4762" height="3.69863" rx="1.84932" fill="#BA98E3"/>
<rect x="198.893" y="146.123" width="30.4762" height="3.69863" rx="1.84932" fill="#BA98E3"/>
<rect x="198.893" y="146.123" width="30.4762" height="3.69863" rx="1.84932" fill="#BA98E3"/>
<rect x="59.5737" y="72.1507" width="8.70748" height="1.23288" rx="0.616438" fill="#6C7086"/>
<rect x="81.3424" y="62.2877" width="20.3175" height="3.69863" rx="1.84932" fill="#D9D9D9"/>
<rect x="123.429" y="62.2877" width="92.8798" height="3.69863" rx="1.84932" fill="#A0D993"/>
<rect x="97.3061" y="95.5753" width="10.1587" height="3.69863" rx="1.84932" fill="#A0D993"/>
<rect x="121.977" y="111.603" width="18.8662" height="4.93151" rx="2.46575" fill="#A0D993"/>
<rect x="91.5011" y="112.836" width="24.6712" height="3.69863" rx="1.84932" fill="#E6BE79"/>
<rect x="91.5011" y="121.466" width="13.0612" height="3.69863" rx="1.84932" fill="#E6BE79"/>
<rect x="78.4399" y="95.5753" width="13.0612" height="3.69863" rx="1.84932" fill="#E6BE79"/>
<rect x="91.5011" y="86.9452" width="13.0612" height="4.93151" rx="2.46575" fill="#E6BE79"/>
<rect x="91.5011" y="137.493" width="10.1587" height="3.69863" rx="1.84932" fill="#E6BE79"/>
<rect x="91.5011" y="128.863" width="13.0612" height="4.93151" rx="2.46575" fill="#E6BE79"/>
<rect x="91.5011" y="146.123" width="13.0612" height="3.69863" rx="1.84932" fill="#E6BE79"/>
<rect x="180.027" y="146.123" width="17.415" height="3.69863" rx="1.84932" fill="#E6BE79"/>
<rect x="175.673" y="146.123" width="2.90249" height="3.69863" rx="1.45125" fill="#EF7F82"/>
<rect x="230.821" y="146.123" width="2.90249" height="3.69863" rx="1.45125" fill="#EF7F82"/>
<rect x="90.0499" y="179.411" width="20.3175" height="3.69863" rx="1.84932" fill="#EF7F82"/>
<rect x="238.077" y="146.123" width="5.80499" height="3.69863" rx="1.84932" fill="#94E2D5"/>
<rect x="268.553" y="137.493" width="4.35374" height="3.69863" rx="1.84932" fill="#94E2D5"/>
<rect x="243.882" y="128.863" width="5.80499" height="4.93151" rx="2.46575" fill="#94E2D5"/>
<rect x="251.138" y="121.466" width="5.80499" height="3.69863" rx="1.84932" fill="#94E2D5"/>
<rect x="146.649" y="112.836" width="5.80499" height="3.69863" rx="1.84932" fill="#94E2D5"/>
<rect x="108.916" y="95.5753" width="2.90249" height="3.69863" rx="1.45125" fill="#94E2D5"/>
<rect x="106.014" y="86.9452" width="4.35374" height="4.93151" rx="2.17687" fill="#94E2D5"/>
<rect x="58.1224" y="86.9452" width="2.90249" height="4.93151" rx="1.45125" fill="#94E2D5"/>
<rect x="58.1224" y="95.5753" width="2.90249" height="3.69863" rx="1.45125" fill="#94E2D5"/>
<rect x="63.9274" y="104.206" width="2.90249" height="3.69863" rx="1.45125" fill="#94E2D5"/>
<rect x="82.7936" y="104.206" width="4.35374" height="3.69863" rx="1.84932" fill="#94E2D5"/>
<rect x="71.1837" y="112.836" width="2.90249" height="3.69863" rx="1.45125" fill="#94E2D5"/>
<rect x="71.1837" y="120.233" width="2.90249" height="4.93151" rx="1.45125" fill="#94E2D5"/>
<rect x="71.1837" y="128.863" width="2.90249" height="4.93151" rx="1.45125" fill="#94E2D5"/>
<rect x="71.1837" y="137.493" width="2.90249" height="3.69863" rx="1.45125" fill="#94E2D5"/>
<rect x="71.1837" y="146.123" width="2.90249" height="3.69863" rx="1.45125" fill="#94E2D5"/>
<rect x="71.1837" y="153.521" width="2.90249" height="4.93151" rx="1.45125" fill="#94E2D5"/>
<rect x="87.1474" y="162.151" width="2.90249" height="4.93151" rx="1.45125" fill="#94E2D5"/>
<rect x="174.222" y="153.521" width="2.90249" height="4.93151" rx="1.45125" fill="#94E2D5"/>
<rect x="65.3787" y="170.781" width="2.90249" height="3.69863" rx="1.45125" fill="#94E2D5"/>
<rect x="91.5011" y="153.521" width="4.35374" height="4.93151" rx="2.17687" fill="#94E2D5"/>
<rect x="79.8911" y="221.329" width="2.90249" height="3.69863" rx="1.45125" fill="#94E2D5"/>
<rect x="87.1474" y="212.699" width="2.90249" height="3.69863" rx="1.45125" fill="#94E2D5"/>
<rect x="95.8549" y="204.068" width="4.35374" height="3.69863" rx="1.84932" fill="#94E2D5"/>
<rect x="84.2449" y="179.411" width="4.35374" height="3.69863" rx="1.84932" fill="#94E2D5"/>
<rect x="78.4399" y="186.808" width="2.90249" height="4.93151" rx="1.45125" fill="#94E2D5"/>
<rect x="85.6961" y="195.438" width="2.90249" height="4.93151" rx="1.45125" fill="#94E2D5"/>
<rect x="85.6961" y="195.438" width="2.90249" height="4.93151" rx="1.45125" fill="#94E2D5"/>
<rect x="113.27" y="179.411" width="5.80499" height="3.69863" rx="1.84932" fill="#94E2D5"/>
<rect x="106.014" y="196.671" width="5.80499" height="3.69863" rx="1.84932" fill="#94E2D5"/>
<rect x="59.5737" y="221.329" width="5.80499" height="3.69863" rx="1.84932" fill="#94E2D5"/>
<rect x="65.3787" y="212.699" width="5.80499" height="3.69863" rx="1.84932" fill="#94E2D5"/>
<rect x="78.4399" y="204.068" width="5.80499" height="3.69863" rx="1.84932" fill="#94E2D5"/>
<rect x="65.3787" y="162.151" width="5.80499" height="4.93151" rx="2.46575" fill="#94E2D5"/>
<rect x="151.002" y="153.521" width="4.35374" height="4.93151" rx="2.17687" fill="#94E2D5"/>
<rect x="149.551" y="146.123" width="21.7687" height="3.69863" rx="1.84932" fill="#E6BE79"/>
<rect x="148.1" y="128.863" width="20.3175" height="4.93151" rx="2.46575" fill="#E6BE79"/>
<rect x="156.807" y="120.233" width="21.7687" height="4.93151" rx="2.46575" fill="#E6BE79"/>
<rect x="198.893" y="137.493" width="14.5125" height="3.69863" rx="1.84932" fill="#E6BE79"/>
<rect x="130.685" y="137.493" width="14.5125" height="3.69863" rx="1.84932" fill="#E6BE79"/>
<rect x="85.6961" y="170.781" width="15.9637" height="3.69863" rx="1.84932" fill="#E6BE79"/>
<rect x="95.8549" y="186.808" width="15.9637" height="4.93151" rx="2.46575" fill="#E6BE79"/>
<rect x="111.819" y="120.233" width="39.1837" height="4.93151" rx="2.46575" fill="#A0D993"/>
<rect x="185.832" y="120.233" width="59.5011" height="4.93151" rx="2.46575" fill="#A0D993"/>
<rect x="175.673" y="128.863" width="62.4036" height="3.69863" rx="1.84932" fill="#A0D993"/>
<rect x="219.211" y="137.493" width="42.0862" height="3.69863" rx="1.84932" fill="#A0D993"/>
<rect x="151.002" y="137.493" width="43.5374" height="3.69863" rx="1.84932" fill="#A0D993"/>
<rect x="110.367" y="128.863" width="30.4762" height="4.93151" rx="2.46575" fill="#A0D993"/>
<rect x="107.465" y="137.493" width="17.415" height="3.69863" rx="1.84932" fill="#A0D993"/>
<rect x="110.367" y="146.123" width="34.8299" height="3.69863" rx="1.84932" fill="#A0D993"/>
<rect x="108.916" y="170.781" width="78.3673" height="3.69863" rx="1.84932" fill="#A0D993"/>
<rect x="117.624" y="186.808" width="46.4399" height="4.93151" rx="2.46575" fill="#A0D993"/>
<rect x="97.3061" y="153.521" width="52.2449" height="4.93151" rx="2.46575" fill="#D9D9D9"/>
<rect x="75.5374" y="112.836" width="14.5125" height="3.69863" rx="1.84932" fill="#6EB4FA"/>
<rect x="75.5374" y="112.836" width="14.5125" height="3.69863" rx="1.84932" fill="#6EB4FA"/>
<rect x="75.5374" y="112.836" width="14.5125" height="3.69863" rx="1.84932" fill="#6EB4FA"/>
<rect x="75.5374" y="112.836" width="14.5125" height="3.69863" rx="1.84932" fill="#6EB4FA"/>
<rect x="75.5374" y="112.836" width="14.5125" height="3.69863" rx="1.84932" fill="#6EB4FA"/>
<rect x="75.5374" y="137.493" width="14.5125" height="3.69863" rx="1.84932" fill="#6EB4FA"/>
<rect x="75.5374" y="137.493" width="14.5125" height="3.69863" rx="1.84932" fill="#6EB4FA"/>
<rect x="75.5374" y="137.493" width="14.5125" height="3.69863" rx="1.84932" fill="#6EB4FA"/>
<rect x="75.5374" y="137.493" width="14.5125" height="3.69863" rx="1.84932" fill="#6EB4FA"/>
<rect x="75.5374" y="137.493" width="14.5125" height="3.69863" rx="1.84932" fill="#6EB4FA"/>
<rect x="75.5374" y="146.123" width="14.5125" height="3.69863" rx="1.84932" fill="#6EB4FA"/>
<rect x="75.5374" y="146.123" width="14.5125" height="3.69863" rx="1.84932" fill="#6EB4FA"/>
<rect x="75.5374" y="146.123" width="14.5125" height="3.69863" rx="1.84932" fill="#6EB4FA"/>
<rect x="75.5374" y="146.123" width="14.5125" height="3.69863" rx="1.84932" fill="#6EB4FA"/>
<rect x="75.5374" y="146.123" width="14.5125" height="3.69863" rx="1.84932" fill="#6EB4FA"/>
<rect x="75.5374" y="153.521" width="14.5125" height="4.93151" rx="2.46575" fill="#6EB4FA"/>
<rect x="75.5374" y="153.521" width="14.5125" height="4.93151" rx="2.46575" fill="#6EB4FA"/>
<rect x="75.5374" y="153.521" width="14.5125" height="4.93151" rx="2.46575" fill="#6EB4FA"/>
<rect x="75.5374" y="153.521" width="14.5125" height="4.93151" rx="2.46575" fill="#6EB4FA"/>
<rect x="75.5374" y="153.521" width="14.5125" height="4.93151" rx="2.46575" fill="#6EB4FA"/>
<rect x="158.259" y="153.521" width="13.0612" height="4.93151" rx="2.46575" fill="#6EB4FA"/>
<rect x="158.259" y="153.521" width="13.0612" height="4.93151" rx="2.46575" fill="#6EB4FA"/>
<rect x="158.259" y="153.521" width="13.0612" height="4.93151" rx="2.46575" fill="#6EB4FA"/>
<rect x="158.259" y="153.521" width="13.0612" height="4.93151" rx="2.46575" fill="#6EB4FA"/>
<rect x="158.259" y="153.521" width="13.0612" height="4.93151" rx="2.46575" fill="#6EB4FA"/>
<rect x="72.6349" y="162.151" width="13.0612" height="4.93151" rx="2.46575" fill="#6EB4FA"/>
<rect x="72.6349" y="162.151" width="13.0612" height="4.93151" rx="2.46575" fill="#6EB4FA"/>
<rect x="72.6349" y="162.151" width="13.0612" height="4.93151" rx="2.46575" fill="#6EB4FA"/>
<rect x="72.6349" y="162.151" width="13.0612" height="4.93151" rx="2.46575" fill="#6EB4FA"/>
<rect x="72.6349" y="162.151" width="13.0612" height="4.93151" rx="2.46575" fill="#6EB4FA"/>
<rect x="69.7324" y="170.781" width="13.0612" height="3.69863" rx="1.84932" fill="#6EB4FA"/>
<rect x="69.7324" y="170.781" width="13.0612" height="3.69863" rx="1.84932" fill="#6EB4FA"/>
<rect x="69.7324" y="170.781" width="13.0612" height="3.69863" rx="1.84932" fill="#6EB4FA"/>
<rect x="69.7324" y="170.781" width="13.0612" height="3.69863" rx="1.84932" fill="#6EB4FA"/>
<rect x="69.7324" y="170.781" width="13.0612" height="3.69863" rx="1.84932" fill="#6EB4FA"/>
<rect x="81.3424" y="186.808" width="10.1587" height="4.93151" rx="2.46575" fill="#6EB4FA"/>
<rect x="81.3424" y="186.808" width="10.1587" height="4.93151" rx="2.46575" fill="#6EB4FA"/>
<rect x="81.3424" y="186.808" width="10.1587" height="4.93151" rx="2.46575" fill="#6EB4FA"/>
<rect x="81.3424" y="186.808" width="10.1587" height="4.93151" rx="2.46575" fill="#6EB4FA"/>
<rect x="81.3424" y="186.808" width="10.1587" height="4.93151" rx="2.46575" fill="#6EB4FA"/>
<rect x="72.6349" y="212.699" width="13.0612" height="3.69863" rx="1.84932" fill="#6EB4FA"/>
<rect x="72.6349" y="212.699" width="13.0612" height="3.69863" rx="1.84932" fill="#6EB4FA"/>
<rect x="72.6349" y="212.699" width="13.0612" height="3.69863" rx="1.84932" fill="#6EB4FA"/>
<rect x="72.6349" y="212.699" width="13.0612" height="3.69863" rx="1.84932" fill="#6EB4FA"/>
<rect x="72.6349" y="212.699" width="13.0612" height="3.69863" rx="1.84932" fill="#6EB4FA"/>
<rect x="65.3787" y="221.329" width="13.0612" height="3.69863" rx="1.84932" fill="#6EB4FA"/>
<rect x="65.3787" y="221.329" width="13.0612" height="3.69863" rx="1.84932" fill="#6EB4FA"/>
<rect x="65.3787" y="221.329" width="13.0612" height="3.69863" rx="1.84932" fill="#6EB4FA"/>
<rect x="65.3787" y="221.329" width="13.0612" height="3.69863" rx="1.84932" fill="#6EB4FA"/>
<rect x="65.3787" y="221.329" width="13.0612" height="3.69863" rx="1.84932" fill="#6EB4FA"/>
<rect x="68.2812" y="104.206" width="13.0612" height="3.69863" rx="1.84932" fill="#6EB4FA"/>
<rect x="68.2812" y="104.206" width="13.0612" height="3.69863" rx="1.84932" fill="#6EB4FA"/>
<rect x="68.2812" y="104.206" width="13.0612" height="3.69863" rx="1.84932" fill="#6EB4FA"/>
<rect x="68.2812" y="104.206" width="13.0612" height="3.69863" rx="1.84932" fill="#6EB4FA"/>
<rect x="68.2812" y="104.206" width="13.0612" height="3.69863" rx="1.84932" fill="#6EB4FA"/>
<rect x="62.4762" y="95.5753" width="13.0612" height="3.69863" rx="1.84932" fill="#6EB4FA"/>
<rect x="62.4762" y="95.5753" width="13.0612" height="3.69863" rx="1.84932" fill="#6EB4FA"/>
<rect x="62.4762" y="95.5753" width="13.0612" height="3.69863" rx="1.84932" fill="#6EB4FA"/>
<rect x="62.4762" y="95.5753" width="13.0612" height="3.69863" rx="1.84932" fill="#6EB4FA"/>
<rect x="62.4762" y="95.5753" width="13.0612" height="3.69863" rx="1.84932" fill="#6EB4FA"/>
<rect x="63.9274" y="86.9452" width="24.6712" height="4.93151" rx="2.46575" fill="#6EB4FA"/>
<rect x="63.9274" y="86.9452" width="24.6712" height="4.93151" rx="2.46575" fill="#6EB4FA"/>
<rect x="63.9274" y="86.9452" width="24.6712" height="4.93151" rx="2.46575" fill="#6EB4FA"/>
<rect x="63.9274" y="86.9452" width="24.6712" height="4.93151" rx="2.46575" fill="#6EB4FA"/>
<rect x="63.9274" y="86.9452" width="24.6712" height="4.93151" rx="2.46575" fill="#6EB4FA"/>
<rect x="85.6961" y="204.068" width="10.1587" height="3.69863" rx="1.84932" fill="#6EB4FA"/>
<rect x="85.6961" y="204.068" width="10.1587" height="3.69863" rx="1.84932" fill="#6EB4FA"/>
<rect x="85.6961" y="204.068" width="10.1587" height="3.69863" rx="1.84932" fill="#6EB4FA"/>
<rect x="85.6961" y="204.068" width="10.1587" height="3.69863" rx="1.84932" fill="#6EB4FA"/>
<rect x="85.6961" y="204.068" width="10.1587" height="3.69863" rx="1.84932" fill="#6EB4FA"/>
<rect x="90.0499" y="195.438" width="14.5125" height="4.93151" rx="2.46575" fill="#6EB4FA"/>
<rect x="90.0499" y="195.438" width="14.5125" height="4.93151" rx="2.46575" fill="#6EB4FA"/>
<rect x="90.0499" y="195.438" width="14.5125" height="4.93151" rx="2.46575" fill="#6EB4FA"/>
<rect x="90.0499" y="195.438" width="14.5125" height="4.93151" rx="2.46575" fill="#6EB4FA"/>
<rect x="90.0499" y="195.438" width="14.5125" height="4.93151" rx="2.46575" fill="#6EB4FA"/>
<rect x="90.0499" y="195.438" width="14.5125" height="4.93151" rx="2.46575" fill="#6EB4FA"/>
<rect x="90.0499" y="195.438" width="14.5125" height="4.93151" rx="2.46575" fill="#6EB4FA"/>
<rect x="90.0499" y="195.438" width="14.5125" height="4.93151" rx="2.46575" fill="#6EB4FA"/>
<rect x="90.0499" y="195.438" width="14.5125" height="4.93151" rx="2.46575" fill="#6EB4FA"/>
<rect x="90.0499" y="195.438" width="14.5125" height="4.93151" rx="2.46575" fill="#6EB4FA"/>
<rect x="75.5374" y="128.863" width="14.5125" height="4.93151" rx="2.46575" fill="#6EB4FA"/>
<rect x="75.5374" y="128.863" width="14.5125" height="4.93151" rx="2.46575" fill="#6EB4FA"/>
<rect x="75.5374" y="128.863" width="14.5125" height="4.93151" rx="2.46575" fill="#6EB4FA"/>
<rect x="75.5374" y="128.863" width="14.5125" height="4.93151" rx="2.46575" fill="#6EB4FA"/>
<rect x="75.5374" y="128.863" width="14.5125" height="4.93151" rx="2.46575" fill="#6EB4FA"/>
<rect x="75.5374" y="121.466" width="14.5125" height="3.69863" rx="1.84932" fill="#6EB4FA"/>
<rect x="75.5374" y="121.466" width="14.5125" height="3.69863" rx="1.84932" fill="#6EB4FA"/>
<rect x="75.5374" y="121.466" width="14.5125" height="3.69863" rx="1.84932" fill="#6EB4FA"/>
<rect x="75.5374" y="121.466" width="14.5125" height="3.69863" rx="1.84932" fill="#6EB4FA"/>
<rect x="75.5374" y="121.466" width="14.5125" height="3.69863" rx="1.84932" fill="#6EB4FA"/>
<path d="M593.633 70.9178C593.633 70.2369 594.185 69.6849 594.866 69.6849H647.547C648.228 69.6849 648.78 70.2369 648.78 70.9178V70.9178C648.78 71.5987 648.228 72.1507 647.547 72.1507H594.866C594.185 72.1507 593.633 71.5987 593.633 70.9178V70.9178Z" fill="#D9D9D9"/>
<rect x="589.279" y="57.3561" width="29.0249" height="2.46575" rx="1.23288" fill="#D9D9D9"/>
<rect x="593.633" y="75.8493" width="34.8299" height="2.46575" rx="1.23288" fill="#D9D9D9"/>
<rect x="606.694" y="85.7123" width="18.8662" height="1.23288" rx="0.616438" fill="#D9D9D9"/>
<rect x="606.694" y="93.1096" width="18.8662" height="1.23288" rx="0.616438" fill="#D9D9D9"/>
<rect x="606.694" y="99.274" width="29.0249" height="2.46575" rx="1.23288" fill="#D9D9D9"/>
<rect x="606.694" y="106.671" width="13.0612" height="2.46575" rx="1.23288" fill="#D9D9D9"/>
<rect x="606.694" y="114.068" width="13.0612" height="2.46575" rx="1.23288" fill="#D9D9D9"/>
<rect x="606.694" y="144.89" width="13.0612" height="2.46575" rx="1.23288" fill="#D9D9D9"/>
<rect x="606.694" y="154.753" width="13.0612" height="2.46575" rx="1.23288" fill="#D9D9D9"/>
<rect x="611.048" y="122.699" width="21.7687" height="2.46575" rx="1.23288" fill="#D9D9D9"/>
<rect x="611.048" y="130.096" width="21.7687" height="2.46575" rx="1.23288" fill="#D9D9D9"/>
<rect x="611.048" y="137.493" width="21.7687" height="2.46575" rx="1.23288" fill="#D9D9D9"/>
<rect x="597.986" y="83.2466" width="4.35374" height="6.16438" rx="2.17687" fill="#D9D9D9"/>
<rect x="597.986" y="90.6439" width="4.35374" height="6.16438" rx="2.17687" fill="#D9D9D9"/>
<rect x="597.986" y="112.836" width="4.35374" height="4.93151" rx="2.17687" fill="#D9D9D9"/>
<rect x="600.889" y="121.466" width="5.80499" height="4.93151" rx="2.46575" fill="#D9D9D9"/>
<rect x="603.791" y="128.863" width="5.80499" height="4.93151" rx="2.46575" fill="#D9D9D9"/>
<rect x="603.791" y="136.26" width="5.80499" height="4.93151" rx="2.46575" fill="#D9D9D9"/>
<rect x="597.986" y="143.658" width="4.35374" height="4.93151" rx="2.17687" fill="#D9D9D9"/>
<rect x="597.986" y="153.521" width="4.35374" height="4.93151" rx="2.17687" fill="#D9D9D9"/>
<rect x="597.986" y="105.438" width="4.35374" height="4.93151" rx="2.17687" fill="#D9D9D9"/>
<rect x="597.986" y="98.0411" width="4.35374" height="4.93151" rx="2.17687" fill="#D9D9D9"/>
</svg>
